<svg width="10" height="12" viewBox="0 0 10 12" fill="none" xmlns="http://www.w3.org/2000/svg">
<path d="M5.80901 6L9.91057 1.11094C9.97932 1.02969 9.92151 0.90625 9.81526 0.90625H8.56839C8.49495 0.90625 8.42464 0.939062 8.3762 0.995312L4.99339 5.02813L1.61057 0.995312C1.5637 0.939062 1.49339 0.90625 1.41839 0.90625H0.171512C0.065262 0.90625 0.00744937 1.02969 0.0761994 1.11094L4.17776 6L0.0761994 10.8891C0.0607987 10.9072 0.0509186 10.9293 0.0477317 10.9529C0.0445448 10.9764 0.0481849 11.0004 0.0582202 11.022C0.0682556 11.0435 0.0842646 11.0617 0.104346 11.0745C0.124428 11.0872 0.147739 11.0939 0.171512 11.0938H1.41839C1.49182 11.0938 1.56214 11.0609 1.61057 11.0047L4.99339 6.97188L8.3762 11.0047C8.42307 11.0609 8.49339 11.0938 8.56839 11.0938H9.81526C9.92151 11.0938 9.97932 10.9703 9.91057 10.8891L5.80901 6Z" fill="black"/>
</svg>
