<svg width="16" height="14" viewBox="0 0 16 14" fill="none" xmlns="http://www.w3.org/2000/svg">
<path d="M15.0314 6.25781H3.60363L10.4435 0.320312C10.5528 0.224609 10.4864 0.046875 10.3419 0.046875H8.6134C8.53723 0.046875 8.46496 0.0742186 8.40832 0.123047L1.02746 6.52734C0.959861 6.58594 0.905646 6.65838 0.86849 6.73976C0.831333 6.82115 0.812103 6.90956 0.812103 6.99902C0.812103 7.08849 0.831333 7.1769 0.86849 7.25828C0.905646 7.33966 0.959861 7.41211 1.02746 7.4707L8.45129 13.9141C8.48058 13.9395 8.51574 13.9531 8.55285 13.9531H10.34C10.4845 13.9531 10.5509 13.7734 10.4415 13.6797L3.60363 7.74219H15.0314C15.1173 7.74219 15.1876 7.67188 15.1876 7.58594V6.41406C15.1876 6.32812 15.1173 6.25781 15.0314 6.25781Z" fill="#3C2DFF"/>
</svg>
